# xmcd
# 
# Track frame offsets:
#     150
#     26090
#     48640
#     67127
#     88520
#     109350
#     128340
#     146725
#     178462
#     195462
#     214575
#     234010
#     253277
#     275555
#     280807
# 
# Disc length: 3971
# 
# Revision: 3
# Processed by: cddbd v1.5.2PL0 Copyright (c) Steve Scherf et al.
# Submitted via: fre:ac v1.0.17
# 
DISCID=e70f810f
DTITLE=I Muvrini - Umani
DYEAR=2002
DGENRE=World
TTITLE0=Aspettami (Attends-Moi)
TTITLE1=Feat.MC Solaar_A Jalâlâbâd
TTITLE2=Di Quale Si l'Amore (De Qui Es-Tu L'Amour)
TTITLE3=Erein Eta Joan (Je Sème Et Je M'En Vais)
TTITLE4=E Un Tempu Và (Et Va Le Temps)
TTITLE5=Diteli (Dites-Leur)
TTITLE6=Vogliu (Je Veux)
TTITLE7=Baià
TTITLE8=Da Le Vostre Mane (De Vos Mains)
TTITLE9=Rifà Lu Mondu (Refaire le Monde)
TTITLE10=I Belli Ghjorni (Les Beaux Jours)
TTITLE11=Feat.Stephan Eicher_Un Sognu Pè Campà (Un Rêve Pour Vivre)
TTITLE12=Umani (Humains)
TTITLE13=Dumani (Demain)
TTITLE14=Feat.Luz Casal_Erein Eta Joan (Je Sème Et Je M'En Vais)
EXTD=YEAR: 2002
EXTT0=
EXTT1=
EXTT2=
EXTT3=
EXTT4=
EXTT5=
EXTT6=
EXTT7=
EXTT8=
EXTT9=
EXTT10=
EXTT11=
EXTT12=
EXTT13=
EXTT14=
PLAYORDER=
